<?xml version="1.0" encoding="UTF-8" standalone="no"?><!-- Created with Inkscape (http://www.inkscape.org/) --><svg xmlns="http://www.w3.org/2000/svg" width="842" height="557"><path d="M 735.57208,260.76257 L 735.57208,189.18054 L 745.28888,189.18054 L 782.88654,245.38171 L 782.88654,189.18054 L 791.96857,189.18054 L 791.96857,260.76257 L 782.25177,260.76257 L 744.65411,204.51257 L 744.65411,260.76257 L 735.57208,260.76257 z M 380.65552,416.89975 L 380.65552,345.31772 L 390.37231,345.31772 L 427.96997,401.51889 L 427.96997,345.31772 L 437.052,345.31772 L 437.052,416.89975 L 427.33521,416.89975 L 389.73755,360.64975 L 389.73755,416.89975 L 380.65552,416.89975 z M 381.04614,506.89975 L 381.04614,435.31772 L 390.5188,435.31772 L 390.5188,464.71225 L 427.72583,464.71225 L 427.72583,435.31772 L 437.19849,435.31772 L 437.19849,506.89975 L 427.72583,506.89975 L 427.72583,473.15951 L 390.5188,473.15951 L 390.5188,506.89975 L 381.04614,506.89975 z" fill="#000" /><path d="M 481.27373,161.54336 L 578.172,54.15016 L 719.46948,84.14826 L 749.46894,176.24243 M 291.97711,298.93466 L 150.37964,328.93276 L 53.781369,221.23958 L 98.480569,83.84828 L 240.07804,53.85018 L 336.67631,161.24338 M 451.57426,352.93124 L 525.97293,298.93466 M 291.97711,298.93466 L 366.67578,353.23122 M 336.67631,161.24338 L 481.27373,161.54336 M 336.67631,161.24338 L 291.97711,298.93466 M 307.87683,167.84296 L 272.47746,276.73607 M 82.880849,215.23996 L 159.37948,300.43457 M 118.58021,105.74689 L 230.77821,81.74841 M 481.27373,161.54336 L 525.97293,298.93466 M 510.07322,167.84296 L 545.47259,277.03605 M 723.06942,267.43665 L 667.27041,329.23274 L 525.97293,298.93466 M 721.86944,230.53899 L 658.57057,301.03453 M 699.66983,106.04687 L 587.47184,82.04839" style="fill:none;stroke:#000;stroke-width:7.5" /></svg>
