<?xml version="1.0" ?><svg height="132.421875mm" version="1.0" viewBox="0 0 392 200" width="259.546875mm" xmlns="http://www.w3.org/2000/svg">
  <g font-family="Helvetica" font-size="12pt" stroke-linecap="round" transform="translate(-89,-207)">
    <g stroke="#000000" stroke-width="1.7">
      <line x1="356.139566981" x2="390.320238702" y1="253.687508862" y2="217.065164028"/>
    </g>
    <g stroke="#000000" stroke-width="1.7">
      <line x1="439.119635053" x2="448.455002479" y1="228.384765446" y2="259.0"/>
    </g>
    <g stroke="#000000" stroke-width="1.7">
      <line x1="370.72957113" x2="419.528967481" y1="301.535266615" y2="312.854868033"/>
    </g>
    <g stroke="#000000" stroke-width="1.7">
      <line x1="442.0" x2="419.528967481" y1="288.778632539" y2="312.854868033"/>
      <line x1="434.517972056" x2="415.417594414" y1="285.174125435" y2="305.638925605"/>
    </g>
    <g stroke="#000000" stroke-width="1.7">
      <line x1="390.320238702" x2="439.119635053" y1="217.065164028" y2="228.384765446"/>
      <line x1="392.188491134" x2="433.667978032" y1="225.638256846" y2="235.259918052"/>
    </g>
    <g stroke="#000000" stroke-width="1.7">
      <line x1="306.128735777" x2="356.139566981" y1="252.76519166" y2="253.687508862"/>
    </g>
    <g stroke="#000000" stroke-width="1.7">
      <line x1="419.528967481" x2="429.025914171" y1="312.854868033" y2="344.0"/>
    </g>
    <g stroke="#000000" stroke-linecap="butt" stroke-width="1.7">
      <line x1="153.70487351" x2="144.313289312" y1="295.0" y2="321.0"/>
    </g>
    <g stroke="#000000" stroke-width="1.7">
      <line x1="207.763554244" x2="171.0" y1="271.75010116" y2="278.860841435"/>
    </g>
    <g stroke="#000000" stroke-width="1.7">
      <line x1="318.0" x2="289.79974167" y1="321.344140434" y2="300.068691334"/>
    </g>
    <g stroke="#000000" stroke-width="1.7">
      <line x1="356.139566981" x2="370.72957113" y1="253.687508862" y2="301.535266615"/>
      <line x1="364.818257627" x2="377.219761153" y1="254.963401006" y2="295.633995096"/>
    </g>
    <g stroke="#000000" stroke-width="1.7">
      <line x1="289.79974167" x2="306.128735777" y1="300.068691334" y2="252.76519166"/>
      <line x1="283.529213583" x2="297.408858574" y1="293.933612472" y2="253.725637749"/>
    </g>
    <g stroke="#000000" stroke-width="1.7">
      <line x1="370.72957113" x2="341.0" y1="301.535266615" y2="322.315986919"/>
    </g>
    <g stroke="#000000" stroke-width="1.7">
      <line x1="240.601079059" x2="207.763554244" y1="309.607704646" y2="271.75010116"/>
      <line x1="244.128115312" x2="216.21621922" y1="301.572813349" y2="269.393850385"/>
    </g>
    <g stroke="#000000" stroke-width="1.7">
      <line x1="289.79974167" x2="240.601079059" y1="300.068691334" y2="309.607704646"/>
    </g>
    <g stroke="#000000" stroke-width="1.7">
      <line x1="207.763554244" x2="224.092548351" y1="271.75010116" y2="224.446601487"/>
    </g>
    <g stroke="#000000" stroke-width="1.7">
      <line x1="306.128735777" x2="273.291210962" y1="252.76519166" y2="214.907588174"/>
    </g>
    <g stroke="#000000" stroke-width="1.7">
      <line x1="224.092548351" x2="273.291210962" y1="224.446601487" y2="214.907588174"/>
      <line x1="229.291715921" x2="271.110579141" y1="231.515414645" y2="223.407253329"/>
    </g>
    <g stroke="#000000" stroke-linecap="butt" stroke-width="1.7">
      <line x1="329.753224082" x2="329.793737233" y1="344.0" y2="368.0"/>
    </g>
    <text fill="#000000" font-family="Arial" font-size="20pt" x="443.3" y="284.232523199">N</text>
    <text fill="#000000" font-family="Arial" font-size="20pt" x="320.3" y="339.193679253">N</text>
    <text fill="#000000" font-family="Arial" font-size="20pt" x="424.3" y="368.68085898">CH</text>
    <text fill="#000000" font-family="Arial" font-size="16pt" x="462.3" y="374.68085898">3</text>
    <text fill="#000000" font-family="Arial" font-size="20pt" x="148.3" y="292.245035997">O</text>
    <text fill="#000000" font-family="Arial" font-size="20pt" x="320.3" y="393.185448979">H</text>
    <text fill="#000000" font-family="Arial" font-size="20pt" x="96.3" y="345.505850253">H</text>
	<text fill="#000000" font-family="Arial" font-size="16pt" x="116.3" y="351.505850253">3</text>
    <text fill="#000000" font-family="Arial" font-size="20pt" x="128.3" y="345.505850253">C</text>
  </g>
</svg>