<?xml version="1.0" encoding="UTF-8" standalone="no"?>
<!-- Generator: Adobe Illustrator 12.0.1, SVG Export Plug-In . SVG Version: 6.00 Build 51448)  -->
<svg
   xmlns:dc="http://purl.org/dc/elements/1.1/"
   xmlns:cc="http://web.resource.org/cc/"
   xmlns:rdf="http://www.w3.org/1999/02/22-rdf-syntax-ns#"
   xmlns:svg="http://www.w3.org/2000/svg"
   xmlns="http://www.w3.org/2000/svg"
   xmlns:sodipodi="http://sodipodi.sourceforge.net/DTD/sodipodi-0.dtd"
   xmlns:inkscape="http://www.inkscape.org/namespaces/inkscape"
   version="1.1"
   id="Layer_1"
   width="160.059"
   height="231.884"
   viewBox="0 0 160.059 231.884"
   style="overflow:visible;enable-background:new 0 0 160.059 231.884;"
   xml:space="preserve"
   sodipodi:version="0.32"
   inkscape:version="0.45.1"
   sodipodi:docname="Ergolin num ABCD.svg"
   inkscape:output_extension="org.inkscape.output.svg.inkscape"
   sodipodi:docbase="C:\"><metadata
   id="metadata152"><rdf:RDF><cc:Work
       rdf:about=""><dc:format>image/svg+xml</dc:format><dc:type
         rdf:resource="http://purl.org/dc/dcmitype/StillImage" /></cc:Work></rdf:RDF></metadata><defs
   id="defs150" /><sodipodi:namedview
   inkscape:window-height="579"
   inkscape:window-width="801"
   inkscape:pageshadow="2"
   inkscape:pageopacity="0.0"
   guidetolerance="10.0"
   gridtolerance="10.0"
   objecttolerance="10.0"
   borderopacity="1.0"
   bordercolor="#666666"
   pagecolor="#ffffff"
   id="base"
   inkscape:zoom="1.6301254"
   inkscape:cx="80.029503"
   inkscape:cy="115.942"
   inkscape:window-x="22"
   inkscape:window-y="22"
   inkscape:current-layer="Layer_1" />
<g
   id="g3"
   style="fill:#ff0000"
   transform="matrix(0.95,0,0,0.95,4.001475,5.7971)">
	<path
   style="fill:#ff0000"
   d="M 4.75,155.435 L 3.172,155.435 L 3.172,145.342 C 2.79,145.705 2.289,146.069 1.67,146.433 C 1.051,146.797 0.493,147.069 0,147.251 L 0,145.72 C 0.886,145.303 1.661,144.799 2.324,144.206 C 2.987,143.613 3.457,143.039 3.733,142.481 L 4.75,142.481 L 4.75,155.435 z "
   id="path5" />
	<path
   style="fill:#ff0000"
   d="M 17.129,153.919 L 17.129,155.435 L 8.598,155.435 C 8.586,155.053 8.648,154.687 8.784,154.334 C 9.003,153.753 9.352,153.182 9.833,152.619 C 10.314,152.057 11.004,151.407 11.903,150.67 C 13.298,149.516 14.244,148.603 14.742,147.932 C 15.24,147.262 15.489,146.626 15.489,146.026 C 15.489,145.399 15.264,144.871 14.814,144.44 C 14.364,144.01 13.777,143.794 13.054,143.794 C 12.288,143.794 11.677,144.023 11.218,144.482 C 10.759,144.941 10.527,145.576 10.521,146.387 L 8.896,146.215 C 9.007,144.999 9.427,144.073 10.156,143.437 C 10.884,142.799 11.862,142.481 13.09,142.481 C 14.329,142.481 15.31,142.825 16.032,143.511 C 16.754,144.197 17.115,145.049 17.115,146.065 C 17.115,146.582 17.009,147.089 16.798,147.587 C 16.587,148.087 16.235,148.612 15.745,149.163 C 15.254,149.716 14.441,150.473 13.305,151.434 C 12.354,152.233 11.743,152.774 11.472,153.059 C 11.201,153.344 10.976,153.629 10.799,153.917 L 17.129,153.917 L 17.129,153.919 z "
   id="path7" />
</g>
<g
   id="g9"
   style="fill:#ff0000"
   transform="matrix(0.95,0,0,0.95,4.001475,5.7971)">
	<path
   style="fill:#ff0000"
   d="M 5.1,208.284 L 3.521,208.284 L 3.521,198.19 C 3.139,198.554 2.638,198.918 2.019,199.282 C 1.399,199.645 0.843,199.919 0.35,200.1 L 0.35,198.569 C 1.236,198.152 2.011,197.648 2.674,197.055 C 3.337,196.462 3.807,195.888 4.083,195.33 L 5.1,195.33 L 5.1,208.284 z "
   id="path11" />
	<path
   style="fill:#ff0000"
   d="M 9.166,204.862 L 10.744,204.643 C 10.926,205.545 11.234,206.195 11.669,206.593 C 12.104,206.99 12.638,207.19 13.272,207.19 C 14.023,207.19 14.654,206.932 15.166,206.417 C 15.677,205.902 15.933,205.264 15.933,204.502 C 15.933,203.776 15.695,203.178 15.22,202.706 C 14.745,202.234 14.139,201.999 13.406,201.999 C 13.106,201.999 12.733,202.058 12.287,202.175 L 12.464,200.784 C 12.569,200.796 12.654,200.802 12.719,200.802 C 13.395,200.802 14.004,200.626 14.544,200.274 C 15.085,199.921 15.356,199.378 15.356,198.645 C 15.356,198.064 15.159,197.582 14.765,197.201 C 14.371,196.819 13.863,196.629 13.24,196.629 C 12.623,196.629 12.108,196.823 11.697,197.211 C 11.286,197.599 11.021,198.181 10.904,198.957 L 9.326,198.676 C 9.519,197.614 9.96,196.791 10.646,196.207 C 11.332,195.624 12.186,195.332 13.207,195.332 C 13.911,195.332 14.56,195.483 15.152,195.785 C 15.744,196.087 16.197,196.499 16.512,197.02 C 16.825,197.542 16.983,198.096 16.983,198.683 C 16.983,199.24 16.834,199.746 16.534,200.204 C 16.235,200.661 15.792,201.025 15.206,201.295 C 15.968,201.471 16.562,201.835 16.987,202.389 C 17.411,202.943 17.624,203.636 17.624,204.468 C 17.624,205.593 17.213,206.547 16.391,207.329 C 15.569,208.111 14.53,208.503 13.274,208.503 C 12.141,208.503 11.2,208.165 10.452,207.489 C 9.698,206.813 9.271,205.938 9.166,204.862 z "
   id="path13" />
</g>
<g
   id="g15"
   style="fill:#ff0000"
   transform="matrix(0.95,0,0,0.95,4.001475,5.7971)">
	<path
   style="fill:#ff0000"
   d="M 51.55,231.884 L 49.972,231.884 L 49.972,221.791 C 49.59,222.154 49.089,222.518 48.47,222.882 C 47.851,223.246 47.294,223.519 46.801,223.7 L 46.801,222.169 C 47.687,221.752 48.462,221.248 49.125,220.655 C 49.788,220.062 50.258,219.488 50.534,218.93 L 51.551,218.93 L 51.551,231.884 L 51.55,231.884 z "
   id="path17" />
	<path
   style="fill:#ff0000"
   d="M 60.694,231.884 L 60.694,228.79 L 55.085,228.79 L 55.085,227.337 L 60.976,218.993 L 62.273,218.993 L 62.273,227.337 L 64.007,227.337 L 64.007,228.79 L 62.273,228.79 L 62.273,231.884 L 60.694,231.884 z M 60.694,227.337 L 60.694,221.517 L 56.643,227.337 L 60.694,227.337 z "
   id="path19" />
</g>
<g
   id="g21"
   style="fill:#ff0000"
   transform="matrix(0.95,0,0,0.95,4.001475,5.7971)">
	<path
   style="fill:#ff0000"
   d="M 37.95,135.134 L 36.372,135.134 L 36.372,125.04 C 35.99,125.404 35.489,125.768 34.87,126.132 C 34.25,126.495 33.694,126.769 33.201,126.95 L 33.201,125.419 C 34.087,125.002 34.862,124.498 35.525,123.905 C 36.188,123.312 36.658,122.738 36.934,122.18 L 37.951,122.18 L 37.951,135.134 L 37.95,135.134 z "
   id="path23" />
	<path
   style="fill:#ff0000"
   d="M 47.969,135.134 L 46.391,135.134 L 46.391,125.04 C 46.009,125.404 45.508,125.768 44.889,126.132 C 44.269,126.495 43.713,126.769 43.22,126.95 L 43.22,125.419 C 44.106,125.002 44.881,124.498 45.544,123.905 C 46.207,123.312 46.677,122.738 46.953,122.18 L 47.97,122.18 L 47.97,135.134 L 47.969,135.134 z "
   id="path25" />
</g>
<path
   style="fill:#231f20"
   d="M 23.948625,190.6044 L 22.333625,191.5069 L 22.333625,152.8894 L 23.948625,153.8394 L 23.948625,190.6044 z "
   id="polygon27" />
<path
   style="fill:#231f20"
   d="M 27.986125,156.6419 L 29.601125,156.6419 L 29.601125,187.8019 L 27.986125,187.8019 L 27.986125,156.6419 z "
   id="rect29" />
<path
   style="fill:#231f20"
   d="M 55.773625,208.9869 L 55.773625,210.8394 L 22.333625,191.5069 L 23.948625,190.6044 L 55.773625,208.9869 z "
   id="polygon31" />
<path
   style="fill:#231f20"
   d="M 87.646125,190.6044 L 88.452675,191.0794 L 88.596125,191.9344 L 55.773625,210.8394 L 55.773625,208.9869 L 87.646125,190.6044 z "
   id="polygon33" />
<path
   style="fill:#231f20"
   d="M 82.373625,187.0894 L 83.181125,188.5144 L 56.201125,204.0944 L 55.393625,202.6694 L 82.373625,187.0894 z "
   id="polygon35" />
<path
   style="fill:#231f20"
   d="M 55.773625,135.4569 L 55.773625,134.5069 L 56.581125,134.0319 L 88.452675,152.4144 L 88.452675,153.3644 L 87.646125,153.8394 L 55.773625,135.4569 z "
   id="polygon37" />
<path
   style="fill:#231f20"
   d="M 55.393625,141.7269 L 56.201125,140.3494 L 83.181125,155.9294 L 82.373625,157.3069 L 55.393625,141.7269 z "
   id="polygon39" />
<path
   style="fill:#231f20"
   d="M 23.948625,153.8394 L 22.333625,152.8894 L 54.966125,134.0319 L 55.773625,134.5069 L 55.773625,135.4569 L 23.948625,153.8394 z "
   id="polygon41" />
<g
   id="g43"
   style="fill:#ff0000"
   transform="matrix(0.95,0,0,0.95,4.001475,5.7971)">
	<path
   style="fill:#ff0000"
   d="M 86.699,214.935 L 85.121,214.935 L 85.121,204.841 C 84.74,205.205 84.239,205.569 83.619,205.933 C 82.999,206.296 82.443,206.57 81.95,206.751 L 81.95,205.22 C 82.836,204.803 83.611,204.299 84.274,203.706 C 84.937,203.113 85.406,202.539 85.683,201.981 L 86.7,201.981 L 86.7,214.935 L 86.699,214.935 z "
   id="path45" />
	<path
   style="fill:#ff0000"
   d="M 90.766,211.56 L 92.422,211.435 C 92.545,212.24 92.83,212.844 93.276,213.249 C 93.722,213.654 94.263,213.856 94.901,213.856 C 95.671,213.856 96.317,213.568 96.84,212.993 C 97.363,212.418 97.625,211.654 97.625,210.703 C 97.625,209.799 97.374,209.085 96.871,208.562 C 96.369,208.04 95.704,207.778 94.877,207.778 C 94.362,207.778 93.901,207.895 93.494,208.13 C 93.087,208.365 92.765,208.67 92.531,209.044 L 91.047,208.825 L 92.297,202.2 L 98.703,202.2 L 98.703,203.716 L 93.554,203.716 L 92.866,207.186 C 93.64,206.644 94.453,206.373 95.304,206.373 C 96.429,206.373 97.379,206.764 98.154,207.544 C 98.927,208.325 99.314,209.329 99.314,210.557 C 99.314,211.725 98.974,212.736 98.294,213.586 C 97.468,214.632 96.339,215.154 94.909,215.154 C 93.736,215.154 92.779,214.826 92.038,214.17 C 91.295,213.513 90.871,212.644 90.766,211.56 z "
   id="path47" />
</g>
<g
   id="g49"
   style="fill:#ff0000"
   transform="matrix(0.95,0,0,0.95,4.001475,5.7971)">
	<path
   style="fill:#ff0000"
   d="M 128.297,134.662 L 129.875,134.443 C 130.057,135.345 130.365,135.995 130.8,136.393 C 131.235,136.79 131.77,136.99 132.403,136.99 C 133.154,136.99 133.785,136.732 134.297,136.217 C 134.808,135.702 135.064,135.064 135.064,134.302 C 135.064,133.576 134.826,132.978 134.351,132.506 C 133.874,132.034 133.27,131.799 132.537,131.799 C 132.237,131.799 131.864,131.858 131.418,131.975 L 131.595,130.584 C 131.7,130.596 131.785,130.602 131.85,130.602 C 132.526,130.602 133.135,130.426 133.675,130.074 C 134.216,129.721 134.487,129.178 134.487,128.445 C 134.487,127.864 134.29,127.382 133.896,127.001 C 133.502,126.62 132.994,126.429 132.371,126.429 C 131.754,126.429 131.239,126.623 130.827,127.011 C 130.416,127.399 130.151,127.981 130.034,128.757 L 128.456,128.476 C 128.649,127.414 129.09,126.591 129.776,126.007 C 130.462,125.424 131.315,125.132 132.337,125.132 C 133.041,125.132 133.69,125.283 134.282,125.585 C 134.874,125.887 135.327,126.299 135.641,126.82 C 135.954,127.342 136.112,127.896 136.112,128.483 C 136.112,129.04 135.963,129.546 135.663,130.004 C 135.364,130.461 134.922,130.825 134.335,131.095 C 135.098,131.271 135.691,131.635 136.116,132.189 C 136.54,132.743 136.753,133.436 136.753,134.268 C 136.753,135.393 136.342,136.347 135.521,137.129 C 134.699,137.911 133.66,138.303 132.404,138.303 C 131.271,138.303 130.33,137.965 129.582,137.289 C 128.829,136.613 128.402,135.737 128.297,134.662 z "
   id="path51" />
</g>
<g
   id="g53"
   style="fill:#ff0000"
   transform="matrix(0.95,0,0,0.95,4.001475,5.7971)">
	<path
   style="fill:#ff0000"
   d="M 160.059,171.219 L 160.059,172.735 L 151.528,172.735 C 151.516,172.353 151.579,171.987 151.715,171.634 C 151.933,171.053 152.282,170.482 152.764,169.919 C 153.244,169.357 153.935,168.707 154.833,167.969 C 156.228,166.815 157.175,165.903 157.673,165.232 C 158.171,164.561 158.419,163.926 158.419,163.326 C 158.419,162.699 158.194,162.171 157.744,161.74 C 157.294,161.309 156.707,161.094 155.983,161.094 C 155.218,161.094 154.606,161.323 154.147,161.782 C 153.688,162.24 153.456,162.876 153.45,163.687 L 151.825,163.515 C 151.937,162.299 152.357,161.373 153.085,160.736 C 153.814,160.099 154.791,159.781 156.019,159.781 C 157.258,159.781 158.239,160.125 158.961,160.811 C 159.683,161.498 160.044,162.349 160.044,163.365 C 160.044,163.882 159.939,164.388 159.728,164.887 C 159.516,165.386 159.165,165.911 158.674,166.463 C 158.184,167.015 157.37,167.773 156.235,168.734 C 155.284,169.533 154.672,170.074 154.401,170.359 C 154.13,170.643 153.906,170.929 153.729,171.217 L 160.059,171.217 L 160.059,171.219 z "
   id="path55" />
</g>
<path
   style="fill:#231f20"
   d="M 87.646125,153.8394 L 88.452675,153.3644 L 89.260175,153.8394 L 89.260175,190.4144 L 88.452675,191.0794 L 87.646125,190.6044 L 87.646125,153.8394 z "
   id="polygon57" />
<path
   style="fill:#231f20"
   d="M 120.27767,134.0319 L 121.08517,134.5069 L 120.89612,135.5519 L 89.260175,153.8394 L 88.452675,153.3644 L 88.452675,152.4144 L 120.27767,134.0319 z "
   id="polygon59" />
<path
   style="fill:#231f20"
   d="M 145.54767,163.9094 L 143.60112,164.0994 L 120.89612,135.5519 L 121.08517,134.5069 L 121.89362,134.2219 L 145.54767,163.9094 z "
   id="polygon61" />
<path
   style="fill:#231f20"
   d="M 138.37612,164.0044 L 137.14017,165.0019 L 119.04362,142.3444 L 120.32612,141.3469 L 138.37612,164.0044 z "
   id="polygon63" />
<g
   id="g65"
   style="fill:#ff0000"
   transform="matrix(0.95,0,0,0.95,4.001475,5.7971)">
	<path
   style="fill:#ff0000"
   d="M 132.375,96.734 L 132.375,93.64 L 126.766,93.64 L 126.766,92.187 L 132.657,83.843 L 133.954,83.843 L 133.954,92.187 L 135.688,92.187 L 135.688,93.64 L 133.954,93.64 L 133.954,96.734 L 132.375,96.734 z M 132.375,92.188 L 132.375,86.368 L 128.324,92.188 L 132.375,92.188 L 132.375,92.188 z "
   id="path67" />
</g>
<g
   id="g69"
   style="fill:#ff0000"
   transform="matrix(0.95,0,0,0.95,4.001475,5.7971)">
	<path
   style="fill:#ff0000"
   d="M 92.847,72.31 L 94.503,72.185 C 94.626,72.99 94.91,73.594 95.356,73.999 C 95.802,74.404 96.344,74.606 96.982,74.606 C 97.752,74.606 98.398,74.318 98.921,73.743 C 99.444,73.168 99.706,72.404 99.706,71.453 C 99.706,70.549 99.455,69.835 98.952,69.312 C 98.449,68.789 97.785,68.528 96.957,68.528 C 96.442,68.528 95.981,68.645 95.574,68.88 C 95.167,69.115 94.846,69.42 94.612,69.794 L 93.128,69.575 L 94.378,62.95 L 100.784,62.95 L 100.784,64.466 L 95.635,64.466 L 94.947,67.936 C 95.721,67.394 96.533,67.123 97.384,67.123 C 98.51,67.123 99.46,67.514 100.234,68.294 C 101.008,69.074 101.395,70.079 101.395,71.306 C 101.395,72.474 101.055,73.485 100.374,74.336 C 99.548,75.381 98.419,75.904 96.989,75.904 C 95.816,75.904 94.859,75.576 94.118,74.92 C 93.375,74.263 92.952,73.394 92.847,72.31 z "
   id="path71" />
</g>
<g
   id="g73"
   style="fill:#ff0000"
   transform="matrix(0.95,0,0,0.95,4.001475,5.7971)">
	<path
   style="fill:#ff0000"
   d="M 37.95,109.334 L 36.372,109.334 L 36.372,99.241 C 35.99,99.605 35.489,99.969 34.87,100.332 C 34.251,100.695 33.694,100.969 33.201,101.15 L 33.201,99.619 C 34.087,99.202 34.862,98.698 35.525,98.105 C 36.188,97.513 36.658,96.938 36.934,96.38 L 37.951,96.38 L 37.951,109.334 L 37.95,109.334 z "
   id="path75" />
	<path
   style="fill:#ff0000"
   d="M 42.016,102.971 C 42.016,101.446 42.173,100.218 42.486,99.285 C 42.799,98.352 43.266,97.636 43.884,97.134 C 44.502,96.632 45.28,96.381 46.218,96.381 C 46.91,96.381 47.517,96.521 48.042,96.799 C 48.566,97.078 48.998,97.48 49.335,98.005 C 49.672,98.53 49.938,99.17 50.131,99.923 C 50.324,100.677 50.422,101.693 50.422,102.972 C 50.422,104.485 50.266,105.708 49.956,106.64 C 49.645,107.573 49.181,108.291 48.562,108.796 C 47.943,109.301 47.163,109.553 46.219,109.553 C 44.976,109.553 44,109.11 43.291,108.223 C 42.441,107.145 42.016,105.394 42.016,102.971 z M 43.641,102.975 C 43.641,105.099 43.889,106.51 44.385,107.208 C 44.88,107.907 45.492,108.256 46.219,108.256 C 46.946,108.256 47.558,107.905 48.053,107.204 C 48.548,106.503 48.797,105.093 48.797,102.975 C 48.797,100.851 48.549,99.44 48.055,98.742 C 47.561,98.044 46.943,97.694 46.201,97.694 C 45.473,97.694 44.891,98.002 44.455,98.618 C 43.913,99.404 43.641,100.856 43.641,102.975 z "
   id="path77" />
</g>
<path
   style="fill:#231f20"
   d="M 120.27767,97.2669 L 121.89362,96.3644 L 121.89362,134.2219 L 121.08517,134.5069 L 120.27767,134.0319 L 120.27767,97.2669 z "
   id="polygon79" />
<path
   style="fill:#231f20"
   d="M 88.452675,78.8844 L 88.452675,77.9819 L 89.260175,77.5069 L 121.89362,96.3644 L 120.27767,97.2669 L 88.452675,78.8844 z "
   id="polygon81" />
<path
   style="fill:#231f20"
   d="M 56.581125,97.2669 L 55.773625,96.7919 L 55.773625,95.8894 L 87.646125,77.5069 L 88.452675,77.9819 L 88.452675,78.8844 L 56.581125,97.2669 z "
   id="polygon83" />
<path
   style="fill:#231f20"
   d="M 56.581125,134.0319 L 55.773625,134.5069 L 54.966125,134.0319 L 54.966125,97.2669 L 55.773625,96.7919 L 56.581125,97.2669 L 56.581125,134.0319 z "
   id="polygon85" />
<g
   id="g87"
   transform="matrix(0.95,0,0,0.95,4.001475,5.7971)">
	<path
   style="fill:#231f20"
   d="M 82.075,45.734 L 82.075,28.547 L 84.414,28.547 L 93.418,42.036 L 93.418,28.547 L 95.606,28.547 L 95.606,45.735 L 93.266,45.735 L 84.263,32.246 L 84.263,45.735 L 82.075,45.735 L 82.075,45.734 z "
   id="path89" />
	<path
   style="fill:#231f20"
   d="M 99.516,45.734 L 99.516,28.547 L 101.797,28.547 L 101.797,35.61 L 110.688,35.61 L 110.688,28.547 L 112.969,28.547 L 112.969,45.735 L 110.688,45.735 L 110.688,37.641 L 101.797,37.641 L 101.797,45.735 L 99.516,45.735 L 99.516,45.734 z "
   id="path91" />
</g>
<g
   id="g93"
   style="fill:#ff0000"
   transform="matrix(0.95,0,0,0.95,4.001475,5.7971)">
	<path
   style="fill:#ff0000"
   d="M 93.48,16.884 L 91.902,17.009 C 91.761,16.388 91.561,15.936 91.302,15.655 C 90.872,15.204 90.342,14.978 89.712,14.978 C 89.206,14.978 88.759,15.119 88.371,15.4 C 87.876,15.764 87.484,16.295 87.196,16.992 C 86.907,17.69 86.757,18.684 86.745,19.974 C 87.128,19.393 87.595,18.963 88.146,18.681 C 88.699,18.399 89.277,18.259 89.882,18.259 C 90.94,18.259 91.84,18.648 92.583,19.426 C 93.326,20.203 93.697,21.209 93.697,22.442 C 93.697,23.252 93.523,24.005 93.174,24.7 C 92.825,25.395 92.344,25.929 91.733,26.298 C 91.122,26.667 90.428,26.853 89.653,26.853 C 88.331,26.853 87.253,26.368 86.419,25.397 C 85.585,24.426 85.167,22.826 85.167,20.597 C 85.167,18.104 85.629,16.291 86.553,15.159 C 87.359,14.174 88.445,13.68 89.81,13.68 C 90.828,13.68 91.662,13.964 92.311,14.532 C 92.962,15.1 93.352,15.883 93.48,16.884 z M 86.996,22.456 C 86.996,23.002 87.112,23.524 87.344,24.023 C 87.576,24.522 87.899,24.902 88.313,25.164 C 88.727,25.425 89.166,25.556 89.628,25.556 C 90.302,25.556 90.879,25.286 91.357,24.746 C 91.835,24.206 92.074,23.472 92.074,22.545 C 92.074,21.653 91.838,20.95 91.365,20.436 C 90.892,19.922 90.293,19.665 89.566,19.665 C 88.85,19.665 88.243,19.922 87.744,20.436 C 87.246,20.949 86.996,21.623 86.996,22.456 z "
   id="path95" />
</g>
<g
   id="g97"
   style="fill:#ff0000"
   transform="matrix(0.95,0,0,0.95,4.001475,5.7971)">
	<path
   style="fill:#ff0000"
   d="M 51.356,1.516 L 51.356,0 L 59.7,0 L 59.7,1.227 C 58.878,2.101 58.064,3.263 57.257,4.712 C 56.45,6.162 55.826,7.653 55.386,9.186 C 55.069,10.266 54.866,11.449 54.779,12.735 L 53.154,12.735 C 53.172,11.719 53.371,10.493 53.752,9.054 C 54.134,7.616 54.681,6.229 55.394,4.893 C 56.107,3.558 56.865,2.432 57.669,1.516 L 51.356,1.516 L 51.356,1.516 z "
   id="path99" />
</g>
<g
   id="g101"
   style="fill:#ff0000"
   transform="matrix(0.95,0,0,0.95,4.001475,5.7971)">
	<path
   style="fill:#ff0000"
   d="M 10.237,29.733 C 9.578,29.493 9.091,29.15 8.773,28.705 C 8.455,28.26 8.296,27.726 8.296,27.104 C 8.296,26.166 8.632,25.378 9.306,24.739 C 9.979,24.1 10.875,23.781 11.993,23.781 C 13.117,23.781 14.021,24.108 14.706,24.761 C 15.391,25.414 15.733,26.21 15.733,27.148 C 15.733,27.746 15.576,28.266 15.263,28.709 C 14.95,29.152 14.474,29.493 13.836,29.733 C 14.628,29.992 15.23,30.408 15.644,30.983 C 16.057,31.558 16.264,32.245 16.264,33.043 C 16.264,34.147 15.874,35.074 15.096,35.825 C 14.317,36.576 13.292,36.952 12.022,36.952 C 10.752,36.952 9.727,36.575 8.948,35.821 C 8.169,35.067 7.781,34.127 7.781,33 C 7.781,32.161 7.994,31.458 8.419,30.892 C 8.844,30.326 9.451,29.939 10.237,29.733 z M 9.406,33.013 C 9.406,33.465 9.511,33.903 9.722,34.326 C 9.932,34.749 10.249,35.076 10.673,35.309 C 11.096,35.54 11.55,35.657 12.036,35.657 C 12.795,35.657 13.419,35.413 13.908,34.926 C 14.396,34.439 14.64,33.819 14.64,33.067 C 14.64,32.303 14.388,31.672 13.885,31.172 C 13.382,30.673 12.748,30.423 11.983,30.423 C 11.235,30.423 10.619,30.67 10.133,31.163 C 9.649,31.656 9.406,32.272 9.406,33.013 z M 9.922,27.049 C 9.922,27.659 10.116,28.157 10.505,28.545 C 10.894,28.933 11.403,29.126 12.033,29.126 C 12.645,29.126 13.145,28.934 13.531,28.55 C 13.917,28.166 14.11,27.695 14.11,27.138 C 14.11,26.557 13.911,26.07 13.514,25.673 C 13.117,25.277 12.617,25.079 12.016,25.079 C 11.409,25.079 10.909,25.272 10.514,25.66 C 10.119,26.046 9.922,26.509 9.922,27.049 z "
   id="path103" />
</g>
<g
   id="g105"
   style="fill:#ff0000"
   transform="matrix(0.95,0,0,0.95,4.001475,5.7971)">
	<path
   style="fill:#ff0000"
   d="M 9.031,85.899 L 10.547,85.774 C 10.676,86.486 10.922,87.003 11.286,87.324 C 11.65,87.645 12.116,87.805 12.685,87.805 C 13.172,87.805 13.601,87.694 13.97,87.47 C 14.339,87.247 14.64,86.949 14.872,86.575 C 15.103,86.202 15.299,85.698 15.457,85.063 C 15.616,84.429 15.695,83.783 15.695,83.126 C 15.695,83.056 15.692,82.95 15.686,82.809 C 15.37,83.313 14.937,83.723 14.39,84.036 C 13.842,84.35 13.249,84.507 12.61,84.507 C 11.544,84.507 10.641,84.12 9.903,83.346 C 9.165,82.572 8.796,81.551 8.796,80.284 C 8.796,78.976 9.181,77.923 9.951,77.125 C 10.721,76.328 11.686,75.929 12.846,75.929 C 13.683,75.929 14.45,76.155 15.143,76.607 C 15.837,77.058 16.364,77.702 16.725,78.538 C 17.085,79.374 17.265,80.584 17.265,82.167 C 17.265,83.815 17.086,85.128 16.729,86.105 C 16.372,87.082 15.84,87.826 15.134,88.335 C 14.428,88.846 13.6,89.101 12.651,89.101 C 11.643,89.101 10.82,88.821 10.182,88.261 C 9.544,87.701 9.16,86.915 9.031,85.899 z M 15.5,80.204 C 15.5,79.296 15.26,78.576 14.78,78.043 C 14.301,77.51 13.718,77.243 13.035,77.243 C 12.328,77.243 11.716,77.53 11.198,78.104 C 10.68,78.678 10.422,79.422 10.422,80.335 C 10.422,81.155 10.668,81.821 11.159,82.334 C 11.65,82.847 12.261,83.103 12.992,83.103 C 13.723,83.103 14.324,82.847 14.794,82.334 C 15.264,81.821 15.5,81.111 15.5,80.204 z "
   id="path107" />
</g>
<path
   style="fill:#231f20"
   d="M 87.646125,51.3344 L 89.260175,51.3344 L 89.260175,77.5069 L 88.452675,77.9819 L 87.646125,77.5069 L 87.646125,51.3344 z "
   id="polygon109" />
<path
   style="fill:#231f20"
   d="M 55.773625,22.3594 L 55.773625,20.4594 L 79.048625,33.9019 L 78.241125,35.2794 L 55.773625,22.3594 z "
   id="polygon111" />
<path
   style="fill:#231f20"
   d="M 23.948625,40.7419 L 22.333625,39.7919 L 55.773625,20.4594 L 55.773625,22.3594 L 23.948625,40.7419 z "
   id="polygon113" />
<path
   style="fill:#231f20"
   d="M 23.948625,77.5069 L 22.333625,78.4094 L 22.333625,39.7919 L 23.948625,40.7419 L 23.948625,77.5069 z "
   id="polygon115" />
<path
   style="fill:#231f20"
   d="M 55.773625,95.8894 L 55.773625,96.7919 L 54.966125,97.2669 L 22.333625,78.4094 L 23.948625,77.5069 L 55.773625,95.8894 z "
   id="polygon117" />
<g
   id="g119"
   transform="matrix(0.95,0,0,0.95,4.001475,5.7971)">
	<path
   style="fill:#231f20"
   d="M 121.324,210.334 L 121.324,193.146 L 123.664,193.146 L 132.668,206.635 L 132.668,193.146 L 134.856,193.146 L 134.856,210.334 L 132.516,210.334 L 123.512,196.845 L 123.512,210.334 L 121.324,210.334 z "
   id="path121" />
	<path
   style="fill:#231f20"
   d="M 138.766,210.334 L 138.766,193.146 L 141.047,193.146 L 141.047,200.209 L 149.938,200.209 L 149.938,193.146 L 152.219,193.146 L 152.219,210.334 L 149.938,210.334 L 149.938,202.24 L 141.047,202.24 L 141.047,210.334 L 138.766,210.334 z "
   id="path123" />
</g>
<g
   id="g125"
   style="fill:#ff0000"
   transform="matrix(0.95,0,0,0.95,4.001475,5.7971)">
	<path
   style="fill:#ff0000"
   d="M 129.8,225.185 L 128.222,225.185 L 128.222,215.092 C 127.84,215.455 127.339,215.819 126.719,216.183 C 126.1,216.547 125.543,216.82 125.05,217.001 L 125.05,215.47 C 125.936,215.053 126.711,214.549 127.374,213.956 C 128.037,213.363 128.507,212.789 128.783,212.231 L 129.8,212.231 L 129.8,225.185 z "
   id="path127" />
</g>
<path
   style="fill:#231f20"
   d="M 117.42767,195.8769 L 117.09612,197.4444 L 88.596125,191.9344 L 88.452675,191.0794 L 89.260175,190.4144 L 117.42767,195.8769 z "
   id="polygon129" />
<path
   style="fill:#231f20"
   d="M 132.29612,186.8994 L 130.87112,186.0919 L 143.60112,164.0994 L 145.54767,163.9094 L 132.29612,186.8994 z "
   id="polygon131" />
<g
   id="g133"
   style="fill:#0000ff"
   transform="matrix(0.95,0,0,0.95,4.001475,5.7971)">
	<path
   style="fill:#0000ff"
   d="M 47.257,183.084 L 53.852,165.896 L 56.304,165.896 L 63.339,183.084 L 60.749,183.084 L 58.761,177.881 L 51.548,177.881 L 49.671,183.084 L 47.257,183.084 z M 52.213,176.021 L 58.036,176.021 L 56.25,171.271 C 55.701,169.827 55.292,168.639 55.023,167.708 C 54.806,168.809 54.497,169.901 54.097,170.986 L 52.213,176.021 z "
   id="path135" />
</g>
<g
   id="g137"
   style="fill:#0000ff"
   transform="matrix(0.95,0,0,0.95,4.001475,5.7971)">
	<path
   style="fill:#0000ff"
   d="M 109.862,180.434 L 109.862,163.246 L 116.307,163.246 C 117.62,163.246 118.672,163.42 119.465,163.768 C 120.258,164.116 120.879,164.651 121.328,165.374 C 121.777,166.097 122.002,166.854 122.002,167.644 C 122.002,168.379 121.803,169.072 121.405,169.721 C 121.007,170.369 120.407,170.894 119.603,171.292 C 120.639,171.597 121.436,172.116 121.994,172.851 C 122.552,173.586 122.83,174.453 122.83,175.453 C 122.83,176.258 122.66,177.006 122.32,177.697 C 121.98,178.388 121.56,178.922 121.061,179.297 C 120.561,179.672 119.934,179.955 119.18,180.147 C 118.426,180.339 117.502,180.434 116.409,180.434 L 109.862,180.434 z M 112.144,170.465 L 115.857,170.465 C 116.864,170.465 117.586,170.399 118.024,170.266 C 118.602,170.094 119.037,169.81 119.33,169.412 C 119.623,169.014 119.769,168.514 119.769,167.913 C 119.769,167.344 119.632,166.842 119.359,166.408 C 119.086,165.974 118.696,165.679 118.188,165.518 C 117.68,165.357 116.809,165.278 115.576,165.278 L 112.144,165.278 L 112.144,170.465 z M 112.144,178.402 L 116.421,178.402 C 117.155,178.402 117.671,178.375 117.968,178.32 C 118.491,178.226 118.929,178.07 119.281,177.851 C 119.633,177.632 119.922,177.314 120.148,176.896 C 120.374,176.478 120.488,175.996 120.488,175.449 C 120.488,174.808 120.323,174.252 119.994,173.779 C 119.665,173.306 119.209,172.974 118.628,172.783 C 118.046,172.592 117.208,172.496 116.115,172.496 L 112.144,172.496 L 112.144,178.402 z "
   id="path139" />
</g>
<g
   id="g141"
   style="fill:#0000ff"
   transform="matrix(0.95,0,0,0.95,4.001475,5.7971)">
	<path
   style="fill:#0000ff"
   d="M 94.59,119.257 L 96.871,119.831 C 96.395,121.701 95.539,123.127 94.303,124.108 C 93.065,125.089 91.553,125.581 89.766,125.581 C 87.916,125.581 86.412,125.204 85.252,124.449 C 84.093,123.695 83.211,122.601 82.607,121.171 C 82.002,119.74 81.7,118.203 81.7,116.562 C 81.7,114.772 82.041,113.209 82.724,111.876 C 83.407,110.543 84.377,109.529 85.639,108.838 C 86.899,108.147 88.285,107.8 89.799,107.8 C 91.516,107.8 92.959,108.238 94.129,109.114 C 95.299,109.991 96.114,111.222 96.574,112.811 L 94.34,113.338 C 93.943,112.088 93.365,111.178 92.61,110.608 C 91.852,110.038 90.901,109.753 89.755,109.753 C 88.437,109.753 87.335,110.069 86.448,110.702 C 85.563,111.335 84.941,112.184 84.583,113.251 C 84.224,114.317 84.044,115.417 84.044,116.55 C 84.044,118.011 84.256,119.286 84.681,120.376 C 85.106,121.466 85.766,122.28 86.662,122.819 C 87.558,123.358 88.529,123.628 89.574,123.628 C 90.845,123.628 91.92,123.261 92.801,122.526 C 93.682,121.791 94.278,120.702 94.59,119.257 z "
   id="path143" />
</g>
<g
   id="g145"
   style="fill:#0000ff"
   transform="matrix(0.95,0,0,0.95,4.001475,5.7971)">
	<path
   style="fill:#0000ff"
   d="M 48.206,64.484 L 48.206,47.297 L 54.117,47.297 C 55.452,47.297 56.47,47.379 57.173,47.543 C 58.156,47.77 58.995,48.181 59.69,48.774 C 60.595,49.54 61.272,50.519 61.721,51.711 C 62.169,52.903 62.394,54.265 62.394,55.797 C 62.394,57.103 62.242,58.259 61.937,59.267 C 61.633,60.276 61.242,61.111 60.767,61.771 C 60.29,62.431 59.77,62.951 59.204,63.33 C 58.638,63.71 57.955,63.997 57.156,64.192 C 56.357,64.387 55.437,64.485 54.399,64.485 L 48.206,64.485 L 48.206,64.484 z M 50.487,62.453 L 54.146,62.453 C 55.276,62.453 56.162,62.348 56.805,62.137 C 57.448,61.926 57.96,61.629 58.342,61.246 C 58.88,60.707 59.299,59.982 59.599,59.072 C 59.899,58.162 60.049,57.058 60.049,55.761 C 60.049,53.964 59.755,52.583 59.166,51.618 C 58.578,50.653 57.863,50.007 57.021,49.679 C 56.413,49.445 55.435,49.327 54.087,49.327 L 50.486,49.327 L 50.486,62.453 L 50.487,62.453 z "
   id="path147" />
</g>
</svg>