<?xml version="1.0" encoding="UTF-8"?>
<!-- Converted by misc2svg (http://www.network-science.de/tools/misc2svg/) -->
<svg xmlns="http://www.w3.org/2000/svg" xmlns:xlink="http://www.w3.org/1999/xlink" width="176pt" height="225pt" viewBox="0 0 176 225" version="1.1">
<defs>
<clipPath id="clip1">
  <path d="M 0 225 L 176.25 225 L 176.25 0 L 0 0 L 0 225 Z M 0 225 "/>
</clipPath>
</defs>
<g id="misc2svg">
<g clip-path="url(#clip1)" clip-rule="nonzero">
<path style=" stroke:none;fill-rule: nonzero; fill: rgb(0%,0%,0%); fill-opacity: 1;" d="M 18.375 193.5 L 16.625 194.5625 L 16.625 151.375 L 18.375 152.375 L 18.375 193.5 Z M 18.375 193.5 "/>
<path style=" stroke:none;fill-rule: nonzero; fill: rgb(0%,0%,0%); fill-opacity: 1;" d="M 22.9375 190.375 L 24.75 190.375 L 24.75 155.5 L 22.9375 155.5 L 22.9375 190.375 Z M 22.9375 190.375 "/>
<path style=" stroke:none;fill-rule: nonzero; fill: rgb(0%,0%,0%); fill-opacity: 1;" d="M 54 214.0625 L 54 216.1875 L 16.625 194.5625 L 18.375 193.5 L 54 214.0625 Z M 54 214.0625 "/>
<path style=" stroke:none;fill-rule: nonzero; fill: rgb(0%,0%,0%); fill-opacity: 1;" d="M 89.625 193.5 L 90.5625 194.0625 L 90.625 195.0625 L 54 216.1875 L 54 214.0625 L 89.625 193.5 Z M 89.625 193.5 "/>
<path style=" stroke:none;fill-rule: nonzero; fill: rgb(0%,0%,0%); fill-opacity: 1;" d="M 83.75 189.625 L 84.6875 191.1875 L 54.5 208.625 L 53.5625 207.0625 L 83.75 189.625 Z M 83.75 189.625 "/>
<path style=" stroke:none;fill-rule: nonzero; fill: rgb(0%,0%,0%); fill-opacity: 1;" d="M 89.625 152.375 L 90.5625 151.875 L 91.4375 152.4375 L 91.4375 193.375 L 90.5625 194.0625 L 89.625 193.5 L 89.625 152.375 Z M 89.625 152.375 "/>
<path style=" stroke:none;fill-rule: nonzero; fill: rgb(0%,0%,0%); fill-opacity: 1;" d="M 54 131.8125 L 54 130.8125 L 54.9375 130.25 L 90.5625 150.875 L 90.5625 151.875 L 89.625 152.375 L 54 131.8125 Z M 54 131.8125 "/>
<path style=" stroke:none;fill-rule: nonzero; fill: rgb(0%,0%,0%); fill-opacity: 1;" d="M 53.5625 138.875 L 54.5 137.3125 L 84.6875 154.75 L 83.75 156.3125 L 53.5625 138.875 Z M 53.5625 138.875 "/>
<path style=" stroke:none;fill-rule: nonzero; fill: rgb(0%,0%,0%); fill-opacity: 1;" d="M 18.375 152.375 L 16.625 151.375 L 53.125 130.25 L 54 130.8125 L 54 131.8125 L 18.375 152.375 Z M 18.375 152.375 "/>
<path style=" stroke:none;fill-rule: nonzero; fill: rgb(0%,0%,0%); fill-opacity: 1;" d="M 126.75 132.75 L 127.6875 133.3125 L 127.625 134.375 L 91.4375 152.4375 L 90.5625 151.875 L 90.5625 150.875 L 126.75 132.75 Z M 126.75 132.75 "/>
<path style=" stroke:none;fill-rule: nonzero; fill: rgb(0%,0%,0%); fill-opacity: 1;" d="M 126.1875 89.125 L 127.9375 88.0625 L 128.5625 132.8125 L 127.6875 133.3125 L 126.75 132.75 L 126.1875 89.125 Z M 126.1875 89.125 "/>
<path style=" stroke:none;fill-rule: nonzero; fill: rgb(0%,0%,0%); fill-opacity: 1;" d="M 90.5625 68.5625 L 90.5625 67.5625 L 93.125 68 L 127.9375 88.0625 L 126.1875 89.125 L 90.5625 68.5625 Z M 90.5625 68.5625 "/>
<path style=" stroke:none;fill-rule: nonzero; fill: rgb(0%,0%,0%); fill-opacity: 1;" d="M 54.9375 89.125 L 54 88.625 L 54 87.5625 L 89.625 67 L 90.5625 67.5625 L 90.5625 68.5625 L 54.9375 89.125 Z M 54.9375 89.125 "/>
<path style=" stroke:none;fill-rule: nonzero; fill: rgb(0%,0%,0%); fill-opacity: 1;" d="M 54.9375 130.25 L 54 130.8125 L 53.125 130.25 L 53.125 89.125 L 54 88.625 L 54.9375 89.125 L 54.9375 130.25 Z M 54.9375 130.25 "/>
<path style=" stroke:none;fill-rule: nonzero; fill: rgb(0%,0%,0%); fill-opacity: 1;" d="M 83.289062 34.5 L 83.289062 16.609375 L 85.710938 16.609375 L 95.105469 30.652344 L 95.105469 16.609375 L 97.371094 16.609375 L 97.371094 34.5 L 94.949219 34.5 L 85.554688 20.4375 L 85.554688 34.5 L 83.289062 34.5 Z M 83.289062 34.5 "/>
<path style=" stroke:none;fill-rule: nonzero; fill: rgb(0%,0%,0%); fill-opacity: 1;" d="M 101.796875 34.5 L 101.796875 16.609375 L 104.160156 16.609375 L 104.160156 23.953125 L 113.457031 23.953125 L 113.457031 16.609375 L 115.820312 16.609375 L 115.820312 34.5 L 113.457031 34.5 L 113.457031 26.0625 L 104.160156 26.0625 L 104.160156 34.5 L 101.796875 34.5 Z M 101.796875 34.5 "/>
<path style=" stroke:none;fill-rule: nonzero; fill: rgb(0%,0%,0%); fill-opacity: 1;" d="M 89.625 36.875 L 91.4375 36.875 L 91.4375 66.1875 L 90.5625 67.5625 L 89.625 67 L 89.625 36.875 Z M 89.625 36.875 "/>
<path style=" stroke:none;fill-rule: nonzero; fill: rgb(0%,0%,0%); fill-opacity: 1;" d="M 54 5.3125 L 54 3.25 L 80.0625 18.25 L 79.125 19.8125 L 54 5.3125 Z M 54 5.3125 "/>
<path style=" stroke:none;fill-rule: nonzero; fill: rgb(0%,0%,0%); fill-opacity: 1;" d="M 18.375 25.875 L 16.625 24.8125 L 54 3.25 L 54 5.3125 L 18.375 25.875 Z M 18.375 25.875 "/>
<path style=" stroke:none;fill-rule: nonzero; fill: rgb(0%,0%,0%); fill-opacity: 1;" d="M 18.375 67 L 16.625 68.0625 L 16.625 24.8125 L 18.375 25.875 L 18.375 67 Z M 18.375 67 "/>
<path style=" stroke:none;fill-rule: nonzero; fill: rgb(0%,0%,0%); fill-opacity: 1;" d="M 54 87.5625 L 54 88.625 L 53.125 89.125 L 16.625 68.0625 L 18.375 67 L 54 87.5625 Z M 54 87.5625 "/>
<path style=" stroke:none;fill-rule: nonzero; fill: rgb(0%,0%,0%); fill-opacity: 1;" d="M 168.625 162.1875 L 166.375 162.8125 L 127.625 134.375 L 127.6875 133.3125 L 128.5625 132.8125 L 168.625 162.1875 Z M 168.625 162.1875 "/>
<path style=" stroke:none;fill-rule: nonzero; fill: rgb(0%,0%,0%); fill-opacity: 1;" d="M 158.8125 164.1875 L 157.75 165.6875 L 126.4375 142.6875 L 127.5 141.1875 L 158.8125 164.1875 Z M 158.8125 164.1875 "/>
<path style=" stroke:none;fill-rule: nonzero; fill: rgb(0%,0%,0%); fill-opacity: 1;" d="M 137.789062 222.25 L 137.789062 204.359375 L 140.210938 204.359375 L 149.605469 218.402344 L 149.605469 204.359375 L 151.871094 204.359375 L 151.871094 222.25 L 149.449219 222.25 L 140.054688 208.1875 L 140.054688 222.25 L 137.789062 222.25 Z M 137.789062 222.25 "/>
<path style=" stroke:none;fill-rule: nonzero; fill: rgb(0%,0%,0%); fill-opacity: 1;" d="M 156.296875 222.25 L 156.296875 204.359375 L 158.660156 204.359375 L 158.660156 211.703125 L 167.957031 211.703125 L 167.957031 204.359375 L 170.320312 204.359375 L 170.320312 222.25 L 167.957031 222.25 L 167.957031 213.8125 L 158.660156 213.8125 L 158.660156 222.25 L 156.296875 222.25 Z M 156.296875 222.25 "/>
<path style=" stroke:none;fill-rule: nonzero; fill: rgb(0%,0%,0%); fill-opacity: 1;" d="M 134.75 208.5625 L 134.125 210.25 L 90.625 195.0625 L 90.5625 194.0625 L 91.4375 193.375 L 134.75 208.5625 Z M 134.75 208.5625 "/>
<path style=" stroke:none;fill-rule: nonzero; fill: rgb(0%,0%,0%); fill-opacity: 1;" d="M 151.3125 201.125 L 149.6875 200.375 L 166.375 162.8125 L 168.625 162.1875 L 151.3125 201.125 Z M 151.3125 201.125 "/>
<path style=" stroke:none;fill-rule: nonzero; fill: rgb(0%,0%,0%); fill-opacity: 1;" d="M 123.886719 65.0625 L 123.886719 47.171875 L 126.25 47.171875 L 126.25 54.515625 L 135.546875 54.515625 L 135.546875 47.171875 L 137.910156 47.171875 L 137.910156 65.0625 L 135.546875 65.0625 L 135.546875 56.625 L 126.25 56.625 L 126.25 65.0625 L 123.886719 65.0625 Z M 123.886719 65.0625 "/>
<path style=" stroke:none;fill-rule: nonzero; fill: rgb(0%,0%,0%); fill-opacity: 1;" d="M 118.75 55.25 L 120.9375 63.0625 L 93.125 68 L 90.5625 67.5625 L 91.4375 66.1875 L 118.75 55.25 Z M 118.75 55.25 "/>
<path style=" stroke:none;fill-rule: nonzero; fill: rgb(0%,0%,0%); fill-opacity: 1;" d="M 4.886719 102.125 L 4.886719 84.234375 L 7.25 84.234375 L 7.25 91.578125 L 16.546875 91.578125 L 16.546875 84.234375 L 18.910156 84.234375 L 18.910156 102.125 L 16.546875 102.125 L 16.546875 93.6875 L 7.25 93.6875 L 7.25 102.125 L 4.886719 102.125 Z M 4.886719 102.125 "/>
<path style=" stroke:none;fill-rule: nonzero; fill: rgb(0%,0%,0%); fill-opacity: 1;" d="M 22.0625 97 L 20.9375 89 L 23.5625 88.9375 L 24.5625 96.375 L 22.0625 97 Z M 22.0625 97 "/>
<path style=" stroke:none;fill-rule: nonzero; fill: rgb(0%,0%,0%); fill-opacity: 1;" d="M 27.0625 95.75 L 26.125 88.875 L 28.6875 88.8125 L 29.5625 95.125 L 27.0625 95.75 Z M 27.0625 95.75 "/>
<path style=" stroke:none;fill-rule: nonzero; fill: rgb(0%,0%,0%); fill-opacity: 1;" d="M 32.0625 94.5 L 31.3125 88.75 L 33.875 88.6875 L 34.625 93.875 L 32.0625 94.5 Z M 32.0625 94.5 "/>
<path style=" stroke:none;fill-rule: nonzero; fill: rgb(0%,0%,0%); fill-opacity: 1;" d="M 37.125 93.25 L 36.5 88.625 L 39.0625 88.5625 L 39.625 92.625 L 37.125 93.25 Z M 37.125 93.25 "/>
<path style=" stroke:none;fill-rule: nonzero; fill: rgb(0%,0%,0%); fill-opacity: 1;" d="M 42.125 92 L 41.6875 88.5 L 44.25 88.4375 L 44.625 91.375 L 42.125 92 Z M 42.125 92 "/>
<path style=" stroke:none;fill-rule: nonzero; fill: rgb(0%,0%,0%); fill-opacity: 1;" d="M 47.125 90.75 L 46.8125 88.375 L 49.4375 88.3125 L 49.6875 90.125 L 47.125 90.75 Z M 47.125 90.75 "/>
</g>
</g>
</svg>
