<?xml version="1.0" encoding="UTF-8" standalone="no"?>
<!-- Generator: Adobe Illustrator 12.0.1, SVG Export Plug-In . SVG Version: 6.00 Build 51448)  -->
<svg
   xmlns:dc="http://purl.org/dc/elements/1.1/"
   xmlns:cc="http://web.resource.org/cc/"
   xmlns:rdf="http://www.w3.org/1999/02/22-rdf-syntax-ns#"
   xmlns:svg="http://www.w3.org/2000/svg"
   xmlns="http://www.w3.org/2000/svg"
   xmlns:sodipodi="http://sodipodi.sourceforge.net/DTD/sodipodi-0.dtd"
   xmlns:inkscape="http://www.inkscape.org/namespaces/inkscape"
   version="1.1"
   id="Layer_1"
   width="254.336"
   height="216.131"
   viewBox="0 0 254.336 216.131"
   style="overflow:visible;enable-background:new 0 0 254.336 216.131;"
   xml:space="preserve"
   sodipodi:version="0.32"
   inkscape:version="0.45.1"
   sodipodi:docname="Morphin.svg"
   inkscape:output_extension="org.inkscape.output.svg.inkscape"
   sodipodi:docbase="C:\"><metadata
   id="metadata118"><rdf:RDF><cc:Work
       rdf:about=""><dc:format>image/svg+xml</dc:format><dc:type
         rdf:resource="http://purl.org/dc/dcmitype/StillImage" /></cc:Work></rdf:RDF></metadata><defs
   id="defs116" /><sodipodi:namedview
   inkscape:window-height="579"
   inkscape:window-width="801"
   inkscape:pageshadow="2"
   inkscape:pageopacity="0.0"
   guidetolerance="10.0"
   gridtolerance="10.0"
   objecttolerance="10.0"
   borderopacity="1.0"
   bordercolor="#666666"
   pagecolor="#ffffff"
   id="base"
   inkscape:zoom="1.7489393"
   inkscape:cx="127.168"
   inkscape:cy="108.0655"
   inkscape:window-x="66"
   inkscape:window-y="66"
   inkscape:current-layer="Layer_1" />
<path
   style="fill:#231f20"
   d="M 63.180775,69.08655 L 62.373275,69.56155 L 61.564825,69.3706 L 61.564825,32.3206 L 62.373275,31.8456 L 63.180775,32.3206 L 63.180775,69.08655 z "
   id="polygon3" />
<path
   style="fill:#231f20"
   d="M 67.218279,35.12405 L 68.833279,35.12405 L 68.833279,66.2831 L 67.218279,66.2831 L 67.218279,35.12405 z "
   id="rect5" />
<path
   style="fill:#231f20"
   d="M 95.005775,87.46905 L 95.005775,88.41905 L 94.198275,88.89405 L 62.705775,70.7006 L 62.373275,69.56155 L 63.180775,69.08655 L 95.005775,87.46905 z "
   id="polygon7" />
<path
   style="fill:#231f20"
   d="M 126.87732,69.08655 L 127.68577,69.56155 L 127.68577,70.4631 L 95.812325,88.89405 L 95.005775,88.41905 L 95.005775,87.46905 L 126.87732,69.08655 z "
   id="polygon9" />
<path
   style="fill:#231f20"
   d="M 121.60577,65.5706 L 122.41232,66.9956 L 95.433275,82.5756 L 94.624825,81.1506 L 121.60577,65.5706 z "
   id="polygon11" />
<path
   style="fill:#231f20"
   d="M 126.87732,32.3206 L 128.49327,31.3706 L 128.49327,69.08655 L 127.68577,69.56155 L 126.87732,69.08655 L 126.87732,32.3206 z "
   id="polygon13" />
<path
   style="fill:#231f20"
   d="M 95.005775,13.9381 L 95.005775,12.08655 L 128.49327,31.3706 L 126.87732,32.3206 L 95.005775,13.9381 z "
   id="polygon15" />
<path
   style="fill:#231f20"
   d="M 94.624825,20.25655 L 95.433275,18.83155 L 122.41232,34.41155 L 121.60577,35.83655 L 94.624825,20.25655 z "
   id="polygon17" />
<path
   style="fill:#231f20"
   d="M 63.180775,32.3206 L 62.373275,31.8456 L 62.373275,30.94405 L 95.005775,12.08655 L 95.005775,13.9381 L 63.180775,32.3206 z "
   id="polygon19" />
<path
   style="fill:#231f20"
   d="M 95.812325,125.6581 L 95.005775,126.08655 L 94.198275,125.6581 L 94.198275,88.89405 L 95.005775,88.41905 L 95.812325,88.89405 L 95.812325,125.6581 z "
   id="polygon21" />
<path
   style="fill:#231f20"
   d="M 126.68732,143.4706 L 127.68577,144.94405 L 126.87732,145.41905 L 97.664825,128.55655 L 95.005775,126.08655 L 95.812325,125.6581 L 126.68732,143.4706 z "
   id="polygon23" />
<path
   style="fill:#231f20"
   d="M 159.51077,125.6581 L 160.31827,126.08655 L 159.93732,127.27405 L 128.49327,145.41905 L 127.68577,144.94405 L 128.63577,143.4706 L 159.51077,125.6581 z "
   id="polygon25" />
<path
   style="fill:#231f20"
   d="M 159.51077,88.89405 L 161.12482,87.94405 L 161.12482,125.84905 L 160.31827,126.08655 L 159.51077,125.6581 L 159.51077,88.89405 z "
   id="polygon27" />
<path
   style="fill:#231f20"
   d="M 127.68577,70.4631 L 127.68577,69.56155 L 128.49327,69.08655 L 161.12482,87.94405 L 159.51077,88.89405 L 127.68577,70.4631 z "
   id="polygon29" />
<path
   style="fill:#231f20"
   d="M 63.180775,145.41905 L 62.373275,144.94405 L 62.705775,143.8506 L 94.198275,125.6581 L 95.005775,126.08655 L 94.673275,127.2256 L 63.180775,145.41905 z "
   id="polygon31" />
<path
   style="fill:#231f20"
   d="M 63.180775,182.1831 L 61.564825,183.1331 L 61.564825,145.8456 L 62.373275,144.94405 L 63.180775,145.41905 L 63.180775,182.1831 z "
   id="polygon33" />
<path
   style="fill:#231f20"
   d="M 95.005775,200.5675 L 95.005775,202.41905 L 61.564825,183.1331 L 63.180775,182.1831 L 95.005775,200.5675 z "
   id="polygon35" />
<path
   style="fill:#231f20"
   d="M 126.87732,182.1831 L 128.49327,183.1331 L 95.005775,202.41905 L 95.005775,200.5675 L 126.87732,182.1831 z "
   id="polygon37" />
<path
   style="fill:#231f20"
   d="M 121.60577,178.66905 L 122.41232,180.09405 L 95.433275,195.67405 L 94.624825,194.2956 L 121.60577,178.66905 z "
   id="polygon39" />
<path
   style="fill:#231f20"
   d="M 126.87732,145.41905 L 127.68577,144.94405 L 128.49327,145.41905 L 128.49327,161.9006 L 126.87732,160.9506 L 126.87732,145.41905 z "
   id="polygon41" />
<path
   style="fill:#231f20"
   d="M 128.49327,183.1331 L 126.87732,182.1831 L 126.87732,171.54405 L 128.49327,172.49405 L 128.49327,183.1331 z "
   id="polygon43" />
<path
   style="fill:#231f20"
   d="M 48.645775,99.155 L 47.220775,98.4425 L 61.564825,69.3706 L 62.373275,69.56155 L 62.705775,70.7006 L 48.645775,99.155 z "
   id="polygon45" />
<g
   id="g47"
   transform="matrix(0.95,0,0,0.95,6.358425,5.4033)">
	<path
   style="fill:#231f20"
   d="M 30.918,108.77 C 30.918,105.917 31.684,103.685 33.216,102.072 C 34.748,100.458 36.726,99.651 39.149,99.651 C 40.736,99.651 42.166,100.03 43.44,100.788 C 44.714,101.547 45.685,102.603 46.354,103.959 C 47.023,105.315 47.356,106.853 47.356,108.571 C 47.356,110.314 47.004,111.873 46.301,113.248 C 45.598,114.623 44.601,115.665 43.311,116.372 C 42.021,117.079 40.63,117.433 39.137,117.433 C 37.519,117.433 36.073,117.042 34.799,116.261 C 33.525,115.48 32.56,114.412 31.903,113.061 C 31.246,111.71 30.918,110.278 30.918,108.77 z M 33.262,108.799 C 33.262,110.869 33.819,112.5 34.933,113.692 C 36.047,114.884 37.445,115.479 39.125,115.479 C 40.837,115.479 42.246,114.877 43.353,113.674 C 44.459,112.471 45.012,110.764 45.012,108.553 C 45.012,107.155 44.776,105.934 44.303,104.891 C 43.83,103.848 43.138,103.039 42.227,102.465 C 41.316,101.891 40.294,101.604 39.161,101.604 C 37.551,101.604 36.165,102.157 35.004,103.262 C 33.843,104.367 33.262,106.213 33.262,108.799 z "
   id="path49" />
</g>
<path
   style="fill:#231f20"
   d="M 47.933275,118.2006 L 49.358275,117.4881 L 62.705775,143.8506 L 62.373275,144.94405 L 60.995775,143.99405 L 47.933275,118.2006 z "
   id="polygon51" />
<g
   id="g53"
   transform="matrix(0.95,0,0,0.95,6.358425,5.4033)">
	<path
   style="fill:#231f20"
   d="M 0,17.484 L 0,0.297 L 2.281,0.297 L 2.281,7.36 L 11.172,7.36 L 11.172,0.297 L 13.453,0.297 L 13.453,17.485 L 11.172,17.485 L 11.172,9.391 L 2.281,9.391 L 2.281,17.485 L 0,17.485 L 0,17.484 z "
   id="path55" />
	<path
   style="fill:#231f20"
   d="M 16.551,9.119 C 16.551,6.266 17.317,4.034 18.849,2.421 C 20.381,0.807 22.358,0 24.781,0 C 26.368,0 27.798,0.379 29.072,1.137 C 30.346,1.896 31.317,2.952 31.986,4.308 C 32.655,5.664 32.988,7.202 32.988,8.92 C 32.988,10.663 32.636,12.222 31.933,13.597 C 31.23,14.972 30.233,16.014 28.943,16.721 C 27.653,17.428 26.262,17.782 24.769,17.782 C 23.151,17.782 21.705,17.391 20.431,16.61 C 19.157,15.829 18.192,14.761 17.535,13.41 C 16.878,12.059 16.551,10.628 16.551,9.119 z M 18.895,9.148 C 18.895,11.218 19.452,12.849 20.566,14.041 C 21.68,15.233 23.078,15.828 24.758,15.828 C 26.47,15.828 27.879,15.226 28.986,14.023 C 30.092,12.82 30.645,11.113 30.645,8.902 C 30.645,7.504 30.409,6.283 29.936,5.24 C 29.463,4.197 28.771,3.388 27.86,2.814 C 26.949,2.24 25.927,1.953 24.794,1.953 C 23.184,1.953 21.798,2.506 20.637,3.611 C 19.476,4.716 18.895,6.563 18.895,9.148 z "
   id="path57" />
</g>
<path
   style="fill:#231f20"
   d="M 38.670775,19.1175 L 39.477325,17.6925 L 62.373275,30.94405 L 62.373275,31.8456 L 61.564825,32.3206 L 38.670775,19.1175 z "
   id="polygon59" />
<g
   id="g61"
   transform="matrix(0.95,0,0,0.95,6.358425,5.4033)">
	<path
   style="fill:#231f20"
   d="M 0,215.834 L 0,198.646 L 2.281,198.646 L 2.281,205.709 L 11.172,205.709 L 11.172,198.646 L 13.453,198.646 L 13.453,215.834 L 11.172,215.834 L 11.172,207.74 L 2.281,207.74 L 2.281,215.834 L 0,215.834 z "
   id="path63" />
	<path
   style="fill:#231f20"
   d="M 16.551,207.469 C 16.551,204.616 17.317,202.384 18.849,200.771 C 20.381,199.157 22.359,198.35 24.782,198.35 C 26.369,198.35 27.799,198.729 29.073,199.487 C 30.347,200.246 31.318,201.302 31.987,202.658 C 32.656,204.014 32.989,205.552 32.989,207.27 C 32.989,209.013 32.637,210.572 31.934,211.947 C 31.231,213.322 30.234,214.364 28.944,215.071 C 27.654,215.778 26.263,216.132 24.77,216.132 C 23.152,216.132 21.706,215.741 20.432,214.96 C 19.158,214.179 18.193,213.111 17.536,211.76 C 16.879,210.409 16.551,208.978 16.551,207.469 z M 18.895,207.498 C 18.895,209.568 19.452,211.199 20.566,212.391 C 21.68,213.583 23.078,214.178 24.758,214.178 C 26.47,214.178 27.879,213.576 28.986,212.373 C 30.092,211.17 30.645,209.463 30.645,207.252 C 30.645,205.854 30.409,204.633 29.936,203.59 C 29.463,202.547 28.771,201.738 27.86,201.164 C 26.949,200.59 25.927,200.303 24.794,200.303 C 23.184,200.303 21.798,200.856 20.637,201.961 C 19.476,203.066 18.895,204.912 18.895,207.498 z "
   id="path65" />
</g>
<path
   style="fill:#231f20"
   d="M 40.237325,199.6631 L 36.580775,193.3456 L 38.052325,192.73 L 41.520775,198.6675 L 40.237325,199.6631 z "
   id="polygon67" />
<path
   style="fill:#231f20"
   d="M 43.752325,197.005 L 40.664825,191.5881 L 42.137325,190.9706 L 45.083275,196.00655 L 43.752325,197.005 z "
   id="polygon69" />
<path
   style="fill:#231f20"
   d="M 47.314825,194.34405 L 44.749825,189.88 L 46.223275,189.2131 L 48.598275,193.3456 L 47.314825,194.34405 z "
   id="polygon71" />
<path
   style="fill:#231f20"
   d="M 50.877325,191.6831 L 48.835775,188.1206 L 50.308275,187.45655 L 52.160775,190.68655 L 50.877325,191.6831 z "
   id="polygon73" />
<path
   style="fill:#231f20"
   d="M 54.439825,189.02405 L 52.873275,186.3631 L 54.393275,185.7456 L 55.723275,188.0256 L 54.439825,189.02405 z "
   id="polygon75" />
<path
   style="fill:#231f20"
   d="M 57.955775,186.3631 L 56.958275,184.60655 L 58.477325,183.9881 L 59.285775,185.3675 L 57.955775,186.3631 z "
   id="polygon77" />
<path
   style="fill:#231f20"
   d="M 117.94827,158.3381 L 110.15827,159.43155 L 94.673275,127.2256 L 95.005775,126.08655 L 97.664825,128.55655 L 117.94827,158.3381 z "
   id="polygon79" />
<g
   id="g81"
   transform="matrix(0.95,0,0,0.95,6.358425,5.4033)">
	<path
   style="fill:#231f20"
   d="M 175.091,170.885 L 175.091,153.697 L 177.431,153.697 L 186.435,167.186 L 186.435,153.697 L 188.623,153.697 L 188.623,170.885 L 186.283,170.885 L 177.279,157.396 L 177.279,170.885 L 175.091,170.885 z "
   id="path83" />
</g>
<path
   style="fill:#231f20"
   d="M 176.42077,146.74905 L 170.14982,150.3581 L 159.93732,127.27405 L 160.31827,126.08655 L 161.12482,125.84905 L 176.42077,146.74905 z "
   id="polygon85" />
<path
   style="fill:#231f20"
   d="M 146.54327,180.4256 L 146.54327,174.8206 L 167.34827,162.805 L 169.77077,166.9831 L 146.54327,180.4256 z "
   id="polygon87" />
<path
   style="fill:#231f20"
   d="M 146.54327,174.8206 L 146.54327,180.4256 L 110.15827,159.43155 L 117.94827,158.3381 L 146.54327,174.8206 z "
   id="polygon89" />
<g
   id="g91"
   transform="matrix(0.95,0,0,0.95,6.358425,5.4033)">
	<path
   style="fill:#231f20"
   d="M 121,116.685 L 121,99.497 L 123.281,99.497 L 123.281,106.56 L 132.172,106.56 L 132.172,99.497 L 134.453,99.497 L 134.453,116.685 L 132.172,116.685 L 132.172,108.591 L 123.281,108.591 L 123.281,116.685 L 121,116.685 z "
   id="path93" />
</g>
<path
   style="fill:#231f20"
   d="M 124.02732,118.3925 L 131.29577,118.3925 L 128.63577,143.4706 L 127.68577,144.94405 L 126.68732,143.4706 L 124.02732,118.3925 z "
   id="polygon95" />
<g
   id="g97"
   transform="matrix(0.95,0,0,0.95,6.358425,5.4033)">
	<path
   style="fill:#231f20"
   d="M 225.656,175.107 L 227.937,175.681 C 227.46,177.551 226.604,178.977 225.368,179.958 C 224.131,180.939 222.619,181.431 220.832,181.431 C 218.982,181.431 217.478,181.054 216.318,180.299 C 215.159,179.545 214.277,178.451 213.672,177.021 C 213.067,175.591 212.765,174.053 212.765,172.412 C 212.765,170.622 213.107,169.059 213.788,167.726 C 214.472,166.393 215.442,165.379 216.703,164.688 C 217.963,163.997 219.349,163.65 220.863,163.65 C 222.58,163.65 224.023,164.088 225.193,164.964 C 226.364,165.841 227.178,167.072 227.639,168.661 L 225.405,169.188 C 225.007,167.938 224.43,167.028 223.674,166.458 C 222.918,165.888 221.965,165.603 220.819,165.603 C 219.501,165.603 218.399,165.919 217.513,166.552 C 216.628,167.185 216.005,168.034 215.647,169.101 C 215.289,170.168 215.109,171.267 215.109,172.4 C 215.109,173.861 215.322,175.136 215.746,176.226 C 216.172,177.316 216.832,178.13 217.728,178.669 C 218.624,179.208 219.595,179.478 220.64,179.478 C 221.91,179.478 222.986,179.111 223.867,178.376 C 224.748,177.641 225.344,176.553 225.656,175.107 z "
   id="path99" />
	<path
   style="fill:#231f20"
   d="M 230.832,181.135 L 230.832,163.947 L 233.113,163.947 L 233.113,171.01 L 242.004,171.01 L 242.004,163.947 L 244.285,163.947 L 244.285,181.135 L 242.004,181.135 L 242.004,173.041 L 233.113,173.041 L 233.113,181.135 L 230.832,181.135 z "
   id="path101" />
</g>
<g
   id="g103"
   transform="matrix(0.95,0,0,0.95,6.358425,5.4033)">
	<path
   style="fill:#231f20"
   d="M 245.883,182.229 L 247.461,182.01 C 247.643,182.906 247.953,183.552 248.389,183.948 C 248.825,184.343 249.361,184.541 249.996,184.541 C 250.748,184.541 251.382,184.283 251.894,183.769 C 252.407,183.253 252.664,182.615 252.664,181.853 C 252.664,181.127 252.426,180.529 251.947,180.057 C 251.47,179.585 250.864,179.35 250.129,179.35 C 249.828,179.35 249.453,179.409 249.006,179.526 L 249.184,178.135 C 249.289,178.147 249.375,178.153 249.44,178.153 C 250.114,178.153 250.721,177.978 251.26,177.627 C 251.8,177.276 252.071,176.735 252.071,176.004 C 252.071,175.425 251.874,174.945 251.479,174.566 C 251.085,174.186 250.577,173.996 249.954,173.996 C 249.337,173.996 248.823,174.19 248.411,174.578 C 247.999,174.966 247.735,175.548 247.618,176.324 L 246.04,176.043 C 246.233,174.981 246.673,174.158 247.36,173.575 C 248.046,172.991 248.899,172.699 249.921,172.699 C 250.624,172.699 251.273,172.849 251.865,173.151 C 252.458,173.452 252.911,173.863 253.225,174.383 C 253.538,174.904 253.696,175.456 253.696,176.041 C 253.696,176.597 253.546,177.103 253.247,177.559 C 252.948,178.015 252.507,178.377 251.921,178.647 C 252.683,178.823 253.275,179.188 253.7,179.741 C 254.124,180.296 254.337,180.988 254.337,181.82 C 254.337,182.946 253.925,183.899 253.104,184.681 C 252.283,185.463 251.244,185.855 249.988,185.855 C 248.854,185.855 247.914,185.518 247.166,184.846 C 246.414,184.171 245.988,183.3 245.883,182.229 z "
   id="path105" />
</g>
<path
   style="fill:#231f20"
   d="M 206.86827,165.3206 L 206.43982,166.8881 L 188.24827,162.04405 L 188.67482,160.4756 L 206.86827,165.3206 z "
   id="polygon107" />
<g
   id="g109"
   transform="matrix(0.95,0,0,0.95,6.358425,5.4033)">
	<path
   style="fill:#231f20"
   d="M 12.6,156.334 L 12.6,139.146 L 14.881,139.146 L 14.881,146.209 L 23.772,146.209 L 23.772,139.146 L 26.053,139.146 L 26.053,156.334 L 23.772,156.334 L 23.772,148.24 L 14.881,148.24 L 14.881,156.334 L 12.6,156.334 z "
   id="path111" />
</g>
<path
   style="fill:#231f20"
   d="M 33.302325,148.6006 L 33.302325,141.3331 L 60.995775,143.99405 L 62.373275,144.94405 L 61.564825,145.8456 L 33.302325,148.6006 z "
   id="polygon113" />
</svg>