<?xml version="1.0" encoding="UTF-8" standalone="no"?>
<!-- Created with Inkscape (http://www.inkscape.org/) -->

<svg
   xmlns:dc="http://purl.org/dc/elements/1.1/"
   xmlns:cc="http://creativecommons.org/ns#"
   xmlns:rdf="http://www.w3.org/1999/02/22-rdf-syntax-ns#"
   xmlns:svg="http://www.w3.org/2000/svg"
   xmlns="http://www.w3.org/2000/svg"
   version="1.1"
   width="620"
   height="598.74"
   id="svg2">
  <defs
     id="defs4" />
  <metadata
     id="metadata7">
    <rdf:RDF>
      <cc:Work
         rdf:about="">
        <dc:format>image/svg+xml</dc:format>
        <dc:type
           rdf:resource="http://purl.org/dc/dcmitype/StillImage" />
        <dc:title></dc:title>
      </cc:Work>
    </rdf:RDF>
  </metadata>
  <g
     transform="translate(635.33,-240.41)"
     id="layer1">
    <path
       d="m -380.45,796.39 -56.53,-32.7 0,-65.6 0,-65.61 12.74,-8.49 c 12.73,-8.47 12.75,-8.48 14.68,-6.55 1.93,1.92 1.91,1.94 -9.83,9.81 l -11.77,7.88 0,62.82 0,62.83 54.09,31.22 54.1,31.22 61.94,-31.22 61.92,-31.22 -0.59,-44.16 c -0.29,-24.28 -0.77,-50.61 -1.06,-58.48 l -0.68,-14.31 2.91,0 2.91,0 0.68,34.21 c 0.29,18.82 0.87,45.79 1.16,59.94 l 0.59,25.74 -64.54,32.73 c -35.53,18.02 -64.99,32.73 -65.42,32.7 -0.43,0 -26.23,-14.77 -57.33,-32.76 z m 12.38,-150.27 c -28.03,-25.95 -54.95,-50.86 -59.85,-55.35 l -8.89,-8.16 -93.01,-26.68 c -51.16,-14.68 -94.05,-27.01 -95.32,-27.42 -1.95,-0.62 9.97,-8.13 79.6,-50.15 l 81.89,-49.41 27.15,-58.61 c 14.93,-32.23 27.37,-58.71 27.66,-58.86 0.27,-0.13 27.67,8.52 60.9,19.25 55.95,18.07 60.31,19.64 59.83,21.45 -0.29,1.07 -0.88,2.21 -1.26,2.54 -0.29,0.32 -26.56,-7.81 -58.32,-18.08 -31.77,-10.27 -58.05,-18.4 -58.42,-18.06 -0.37,0.34 -12.22,25.5 -26.33,55.93 l -25.67,55.32 20.28,20.39 c 11.14,11.21 20.25,21.04 20.24,21.84 0,0.79 -0.43,2.1 -0.94,2.9 -0.75,1.16 -5.2,-2.8 -22.06,-19.63 l -21.14,-21.08 -75.02,45.25 c -41.26,24.88 -74.67,45.56 -74.25,45.94 1.4,1.26 167.36,30.32 168.16,29.46 0.42,-0.47 13.09,-31.85 28.14,-69.75 l 27.38,-68.91 48.16,-19.24 c 44.93,-17.94 48.23,-19.12 49.4,-17.51 0.68,0.95 1.16,2.15 0.97,2.66 -0.2,0.51 -15.53,10.56 -34.16,22.33 l -33.88,21.4 63.48,15.72 c 34.94,8.64 63.66,15.42 63.86,15.07 0.19,-0.35 13.49,-22.68 29.6,-49.62 l 29.31,-48.97 66.19,-23.31 c 36.49,-12.81 65.703,-23.59 65.024,-23.96 -4.756,-2.7 -133.154,-54.06 -133.734,-53.48 -0.3,0.39 -13.4,17.64 -28.93,38.33 l -28.34,37.61 -2.23,-1.67 -2.13,-1.66 29.99,-39.83 c 16.5,-21.9 30.57,-39.77 31.15,-39.7 0.58,0.1 33.39,13.25 72.89,29.29 39.497,16.04 73.077,29.66 74.727,30.26 2.717,1.05 -0.194,2.64 -68.806,37.25 l -71.631,36.15 -27.37,45.76 c -15.04,25.17 -27.66,46.04 -27.95,46.39 -0.39,0.34 -35.62,-8.03 -78.32,-18.59 -42.73,-10.56 -77.85,-19.02 -78.06,-18.78 -0.43,0.48 -51.11,127.91 -51.11,128.5 0,0.21 23.04,21.66 51.2,47.67 28.15,26.01 52.59,48.6 54.3,50.2 l 3.11,2.89 43.27,-21.08 c 23.88,-11.6 43.48,-20.94 43.67,-20.77 0.1,0.18 0.68,1.26 1.27,2.4 1.06,1.95 -1.56,4.11 -41.06,33.73 -23.19,17.41 -42.53,31.64 -42.92,31.63 -0.41,0 -23.67,-21.24 -51.69,-47.19 z m 147.51,-37.23 0,-28.15 4.17,0 4.08,0 14.36,21.58 14.27,21.56 0,-21.59 0,-21.59 3.88,0 3.88,0 0,28.14 0,28.15 -4.17,0 -4.08,0 -14.36,-21.58 -14.27,-21.56 0,21.59 0,21.59 -3.88,0 -3.88,0 0,-28.14 z m -162.91,-9.34 c -2.21,-1.54 -1.88,-1.8 24.1,-19.11 l 26.33,-17.53 -31.16,-31.19 c -30.89,-30.91 -31.15,-31.2 -29.95,-33.84 l 1.2,-2.66 33.07,33.04 33.05,33.03 48.04,15.83 c 46.97,15.48 48.04,15.89 47.75,18.22 -0.2,1.31 -0.49,2.54 -0.68,2.74 -0.2,0.18 -21.94,-6.86 -48.34,-15.67 l -48.06,-16.01 -26.04,17.36 c -14.32,9.55 -26.28,17.37 -26.56,17.37 -0.28,0 -1.51,-0.71 -2.75,-1.58 z m 104.68,-234.26 0,-28.15 4.17,0 4.07,0 14.37,21.58 14.27,21.56 0,-21.59 0,-21.6 3.88,0 3.88,0 0,28.15 0,28.14 -4.17,0 -4.08,0 -14.36,-21.57 -14.27,-21.57 0,21.6 0,21.59 -3.88,0 -3.88,0 0,-28.14 z"
       id="path3009"
       style="fill:#000000" />
  </g>
</svg>
