<?xml version="1.0" encoding="UTF-8" standalone="no"?> <!-- Created with Inkscape (http://www.inkscape.org/) --> <svg xmlns="http://www.w3.org/2000/svg" xmlns:xlink="http://www.w3.org/1999/xlink" width="464.5" height="436.5"><text x="65.800575" y="416.8064" id="O" style="font-size:45px;font-family:Arial">O</text><text x="356.16302" y="333.89453" style="font-size:45px;font-family:Arial">N</text><use transform="translate(15.152543,-180.68355)" xlink:href="#O" /><use transform="translate(9.5367432e-7,-364.87888)" xlink:href="#O" /><path d="M 265.17431,297.3349 L 265.17431,359.43163 M 157.17969,359.73162 L 210.87702,390.62999 M 210.28459,255.33719 L 146.98981,291.63528 L 146.98981,364.53145 L 210.28459,401.12952 L 273.2794,364.68144 L 273.2794,291.93526 M 209.08469,46.248187 L 265.48004,78.946467 M 146.98981,73.246767 L 210.28459,36.648687 L 273.2794,73.096777 L 273.2794,146.14293 M 146.98981,146.14293 L 210.28459,182.44102 M 146.98981,146.14293 L 146.98981,73.246767 M 155.98907,142.24314 L 155.98907,77.146557 M 210.28459,182.44102 L 273.2794,146.14293 M 209.08469,172.84153 L 265.48004,140.14325 M 273.2794,291.93526 L 336.57418,255.33719 L 336.57418,182.44102 L 273.2794,146.14293 M 273.2794,291.93526 L 210.28459,255.33719 M 210.28459,182.44102 L 210.28459,255.33719 M 146.98981,146.14293 L 110.09285,201.04005 M 146.98981,73.246767 L 101.69354,46.848157 M 389.96979,322.83364 L 444.26531,336.9329 M 108.43782,242.95159 L 116.05561,237.61756 M 114.09116,249.97932 L 120.72604,245.33352 M 119.74443,257.00714 L 125.39642,253.04958 M 125.39777,264.03487 L 130.06677,260.7656 M 131.0511,271.0626 L 134.73712,268.48163 M 136.70436,278.09039 L 139.16173,276.36972 M 142.35777,285.11807 L 143.83216,284.08569 M 20.234686,73.246767 L 65.530957,46.848157 M 146.98981,364.53144 L 101.69354,390.93005 M 20.234686,364.53144 L 65.530957,390.93005" style="fill:none;stroke:#000;stroke-width:3" /><path d="M 253.5,311.46875 L 253.5,333.0625 L 278.6875,347.90625 L 278.6875,326.34375 L 253.5,311.46875 z" fill="#fff" /><path d="M 335.1875,255.9375 L 355.53125,300.25 L 366.46875,293.9375 L 337.9375,254.6875 L 335.1875,255.9375 z M 211.5,254.5 L 208.90625,256 L 242.09375,323.59375 L 310.4375,363.28125 L 356.5625,336.28125 L 349.84375,324.75 L 310.4375,347.8125 L 251.84375,313.65625 L 211.5,254.5 z" fill="#000" /></svg>
